<?xml version="1.0" encoding="UTF-8" standalone="no"?>
<!-- Created with Inkscape (http://www.inkscape.org/) -->

<svg
   xmlns:dc="http://purl.org/dc/elements/1.1/"
   xmlns:cc="http://creativecommons.org/ns#"
   xmlns:rdf="http://www.w3.org/1999/02/22-rdf-syntax-ns#"
   xmlns:svg="http://www.w3.org/2000/svg"
   xmlns="http://www.w3.org/2000/svg"
   xmlns:sodipodi="http://sodipodi.sourceforge.net/DTD/sodipodi-0.dtd"
   xmlns:inkscape="http://www.inkscape.org/namespaces/inkscape"
   width="1024"
   height="1024"
   id="svg2993"
   version="1.1"
   inkscape:version="0.48.4 r9939"
   sodipodi:docname="G.svg">
  <defs
     id="defs2995" />
  <sodipodi:namedview
     id="base"
     pagecolor="#ffffff"
     bordercolor="#666666"
     borderopacity="1.0"
     inkscape:pageopacity="0.0"
     inkscape:pageshadow="2"
     inkscape:zoom="1.979899"
     inkscape:cx="260.32146"
     inkscape:cy="781.16898"
     inkscape:document-units="px"
     inkscape:current-layer="layer1"
     showgrid="true"
     inkscape:snap-bbox="true"
     inkscape:bbox-paths="true"
     inkscape:snap-bbox-edge-midpoints="false"
     inkscape:bbox-nodes="true"
     inkscape:snap-bbox-midpoints="false"
     inkscape:window-width="1920"
     inkscape:window-height="1027"
     inkscape:window-x="-8"
     inkscape:window-y="-8"
     inkscape:window-maximized="1"
     showguides="true"
     inkscape:guide-bbox="true"
     guidecolor="#0a00b3"
     guideopacity="0.49803922">
    <inkscape:grid
       type="xygrid"
       id="grid3042"
       empspacing="2"
       visible="true"
       enabled="true"
       snapvisiblegridlinesonly="true"
       spacingx="8px"
       spacingy="8px"
       color="#808080"
       opacity="0.1254902"
       empcolor="#393939"
       empopacity="0.2" />
    <sodipodi:guide
       orientation="0,1"
       position="704,1024"
       id="guide3044" />
    <sodipodi:guide
       orientation="1,0"
       position="0,768"
       id="guide3046" />
    <sodipodi:guide
       orientation="1,0"
       position="384,704"
       id="guide3048" />
    <sodipodi:guide
       orientation="1,0"
       position="320,832"
       id="guide3050" />
    <sodipodi:guide
       orientation="0,1"
       position="384,192"
       id="guide3052" />
    <sodipodi:guide
       orientation="0,1"
       position="640,832"
       id="guide3054" />
    <sodipodi:guide
       orientation="0,1"
       position="640,0"
       id="guide3056" />
    <sodipodi:guide
       orientation="1,0"
       position="1024,640"
       id="guide3058" />
    <sodipodi:guide
       orientation="1,0"
       position="-16,688"
       id="guide3060" />
    <sodipodi:guide
       orientation="0,1"
       position="240,848"
       id="guide3064" />
    <sodipodi:guide
       orientation="1,0"
       position="336,672"
       id="guide3066" />
    <sodipodi:guide
       orientation="0,1"
       position="176,176"
       id="guide3068" />
  </sodipodi:namedview>
  <metadata
     id="metadata2998">
    <rdf:RDF>
      <cc:Work
         rdf:about="">
        <dc:format>image/svg+xml</dc:format>
        <dc:type
           rdf:resource="http://purl.org/dc/dcmitype/StillImage" />
        <dc:title />
      </cc:Work>
    </rdf:RDF>
  </metadata>
  <g
     inkscape:label="Layer 1"
     inkscape:groupmode="layer"
     id="layer1"
     transform="translate(0,-28.362183)">
    <path
       inkscape:connector-curvature="0"
       style="fill:#2e3436;fill-opacity:1;stroke:none;display:inline"
       d="m 160.0013,212.36218 c -160,0 -168,136 -168,328.00002 0,192 8,328 168,328 1.3653,0 2.7193,-0.012 4.0625,-0.031 1.0892,-0.016 2.1752,-0.034 3.25,-0.062 0.249,-0.01 0.5018,-0.024 0.75,-0.031 0.5872,-0.017 1.1671,-0.041 1.75,-0.062 0.7373,-0.027 1.457,-0.061 2.1875,-0.094 0.8665,-0.039 1.7056,-0.077 2.5625,-0.125 0.4315,-0.024 0.8522,-0.036 1.2813,-0.062 0.3774,-0.023 0.7494,-0.069 1.125,-0.094 2.1751,-0.1439 4.3244,-0.2997 6.4374,-0.5 0.1265,-0.012 0.2488,-0.019 0.375,-0.031 1.1057,-0.1067 2.1925,-0.2217 3.2813,-0.3438 0.01,-10e-4 0.021,0.001 0.031,0 1.168,-0.1311 2.3199,-0.2887 3.4687,-0.4375 0.041,0 0.084,0.01 0.125,0 0.02,0 0.042,0 0.062,0 1.1778,-0.1536 2.3423,-0.3279 3.5,-0.5 0.8985,-0.1334 1.7698,-0.2617 2.6562,-0.4062 0.01,0 0.021,0 0.031,0 1.4083,-0.2298 2.8093,-0.4925 4.1875,-0.75 0.01,0 0.021,0 0.031,0 1.3683,-0.256 2.7236,-0.5294 4.0626,-0.8125 1.3478,-0.285 2.6815,-0.5938 4,-0.9063 1.0607,-0.2513 2.1142,-0.5122 3.1562,-0.7812 0.2594,-0.067 0.523,-0.1194 0.7812,-0.1875 0.379,-0.1 0.7486,-0.2103 1.125,-0.3125 0.9155,-0.2485 1.818,-0.4877 2.7188,-0.75 0.1371,-0.04 0.2695,-0.085 0.4062,-0.125 1.1301,-0.3325 2.2366,-0.6771 3.3438,-1.0313 0.9291,-0.2971 1.8368,-0.5939 2.75,-0.9062 0.3066,-0.1048 0.6014,-0.206 0.9062,-0.3125 0.1375,-0.048 0.2692,-0.1079 0.4063,-0.1563 0.9058,-0.3196 1.7975,-0.634 2.6875,-0.9687 0.1662,-0.062 0.3343,-0.1245 0.5,-0.1875 0.4536,-0.1726 0.8942,-0.3548 1.3438,-0.5313 0.9584,-0.3763 1.9037,-0.7621 2.8437,-1.1562 0.595,-0.2495 1.1936,-0.4935 1.7813,-0.75 0.3422,-0.1494 0.6914,-0.2857 1.0312,-0.4375 1.1025,-0.4925 2.1733,-1.0136 3.25,-1.5313 0.7268,-0.3493 1.4411,-0.7017 2.1562,-1.0625 0.3694,-0.1863 0.7275,-0.3731 1.0938,-0.5625 0.9137,-0.4723 1.8242,-0.9464 2.7188,-1.4375 0.154,-0.085 0.3153,-0.1649 0.4687,-0.25 0.3156,-0.175 0.6242,-0.3538 0.9375,-0.5312 0.7241,-0.41 1.4447,-0.8276 2.1562,-1.25 0.1248,-0.074 0.2507,-0.1443 0.375,-0.2188 0.898,-0.5374 1.7784,-1.0677 2.6563,-1.625 0.096,-0.061 0.186,-0.1266 0.2813,-0.1875 0.8959,-0.5723 1.7809,-1.157 2.6562,-1.75 0.5587,-0.3785 1.1059,-0.7694 1.6562,-1.1562 0.1977,-0.139 0.3972,-0.2663 0.5938,-0.4063 l 0,17.8125 64,0 0,-149.625 0,-170.375 0,-63.99997 -64,0 -64,0 -64,0 0,63.99997 64,0 64,0 c 0,76.6223 0.012,138.5596 -10.5312,182.3125 -0.076,0.3145 -0.1732,0.625 -0.25,0.9375 -0.2862,1.1634 -0.5735,2.3316 -0.875,3.4688 -0.05,0.187 -0.1063,0.3761 -0.1563,0.5625 -0.3359,1.2508 -0.676,2.5 -1.0313,3.7187 -0.054,0.1861 -0.1015,0.3772 -0.1562,0.5625 -0.1163,0.394 -0.2566,0.7657 -0.375,1.1563 -0.3354,1.1067 -0.6788,2.2019 -1.0312,3.2812 -0.3449,1.0557 -0.6697,2.1269 -1.0313,3.1563 -0.066,0.188 -0.1521,0.3753 -0.2187,0.5625 -0.3987,1.1196 -0.7996,2.2244 -1.2188,3.3125 -0.068,0.1766 -0.1502,0.3555 -0.2188,0.5312 -0.4247,1.0881 -0.8663,2.1628 -1.3124,3.2188 -0.013,0.03 -0.019,0.064 -0.031,0.094 -1.0283,2.4282 -2.1039,4.7746 -3.25,7.0312 0,0.01 0,0.023 0,0.031 -0.055,0.1089 -0.1319,0.204 -0.1875,0.3125 -0.5102,0.9957 -1.0282,1.9758 -1.5625,2.9375 -0.016,0.028 -0.016,0.066 -0.031,0.094 -0.5709,1.0252 -1.1822,2.0138 -1.7812,3 -0.043,0.071 -0.082,0.1478 -0.125,0.2188 -0.2134,0.3492 -0.4392,0.687 -0.6562,1.0312 -0.4367,0.6923 -0.8612,1.3903 -1.3126,2.0625 -0.1214,0.181 -0.2524,0.3518 -0.375,0.5313 -0.5608,0.8213 -1.135,1.6467 -1.7187,2.4375 -0.2536,0.3435 -0.5232,0.6622 -0.7813,1 -0.4656,0.6097 -0.926,1.2217 -1.4062,1.8125 -0.093,0.1144 -0.1877,0.23 -0.2812,0.3437 -0.6557,0.7971 -1.3171,1.5818 -2,2.3438 -0.2021,0.2255 -0.4206,0.4338 -0.625,0.6562 -0.5456,0.5933 -1.0934,1.1787 -1.6563,1.75 -0.041,0.042 -0.084,0.083 -0.125,0.125 -0.1143,0.1155 -0.2288,0.2292 -0.3437,0.3438 -0.6239,0.621 -1.2611,1.2181 -1.9063,1.8125 -0.087,0.08 -0.1629,0.1706 -0.25,0.25 -0.1859,0.1696 -0.3748,0.3326 -0.5625,0.5 -0.5443,0.4851 -1.0968,0.9709 -1.6562,1.4375 -0.1358,0.1132 -0.2697,0.2316 -0.4063,0.3437 -0.3148,0.2584 -0.6492,0.4975 -0.9687,0.75 -0.3566,0.2816 -0.7,0.5695 -1.0626,0.8438 -0.5342,0.4045 -1.0775,0.7988 -1.625,1.1875 -0.3881,0.2754 -0.7926,0.545 -1.1874,0.8125 -0.7596,0.5146 -1.5279,1.015 -2.3126,1.5 -0.7665,0.4738 -1.5528,0.9295 -2.3437,1.375 -0.4677,0.2633 -0.9299,0.5279 -1.4063,0.7812 -0.2525,0.1344 -0.4949,0.2747 -0.75,0.4063 -0.2484,0.1282 -0.4992,0.2494 -0.75,0.375 -0.4943,0.2474 -0.9965,0.4817 -1.5,0.7187 -0.5279,0.2487 -1.0556,0.4815 -1.5937,0.7188 -0.7029,0.3098 -1.4046,0.616 -2.125,0.9062 -0.2009,0.081 -0.3915,0.1706 -0.5937,0.25 -0.122,0.048 -0.2526,0.078 -0.375,0.125 -0.7249,0.2803 -1.4763,0.5518 -2.2188,0.8125 -0.5229,0.1837 -1.0308,0.3886 -1.5625,0.5625 -0.5024,0.1644 -1.0209,0.3131 -1.5313,0.4688 -0.6826,0.2082 -1.3654,0.4012 -2.0624,0.5937 -1.0295,0.2848 -2.0639,0.5619 -3.125,0.8125 -0.062,0.015 -0.1255,0.017 -0.1876,0.031 -1.0698,0.2503 -2.1475,0.4721 -3.25,0.6875 -0.1484,0.029 -0.2884,0.065 -0.4374,0.094 -0.062,0.012 -0.1251,0.02 -0.1876,0.031 -1.2599,0.2374 -2.5408,0.4641 -3.8437,0.6563 -0.1253,0.019 -0.2493,0.013 -0.375,0.031 -1.2477,0.1793 -2.4938,0.362 -3.7813,0.5 -0.031,0 -0.063,0 -0.094,0 -2.2225,0.2363 -4.5315,0.419 -6.875,0.5312 -2.1008,0.1005 -4.2369,0.1563 -6.4375,0.1563 -96,0 -96,-96 -96,-256 0,-160.00002 0,-256.00002 96,-256.00002 50.0267,0 73.9959,26.07701 85.4688,73.6875 l 64.125,-37.03125 c -14.926,-50.39475 -41.8461,-85.70288 -90.25,-100.65625 -0.5645,-0.17437 -1.1172,-0.36242 -1.6876,-0.53125 -0.082,-0.0243 -0.1676,-0.0383 -0.25,-0.0625 -0.022,-0.006 -0.041,-0.0248 -0.062,-0.0312 -1.0105,-0.29688 -2.0337,-0.5643 -3.0626,-0.84375 -0.4649,-0.1262 -0.9374,-0.25237 -1.4062,-0.375 -0.5899,-0.15437 -1.1853,-0.32005 -1.7812,-0.46875 -0.5158,-0.12862 -1.0422,-0.25064 -1.5626,-0.375 -0.559,-0.13366 -1.1231,-0.27752 -1.6874,-0.40625 -0.5671,-0.12928 -1.1464,-0.25072 -1.7188,-0.375 -0.5279,-0.11464 -1.0613,-0.23337 -1.5938,-0.34375 -0.6187,-0.1282 -1.25,-0.25256 -1.875,-0.375 -0.4923,-0.0965 -1.0037,-0.18838 -1.5,-0.28125 -0.6795,-0.12712 -1.3756,-0.25463 -2.0624,-0.375 -1.0865,-0.1904 -2.1765,-0.3578 -3.2813,-0.53125 -0.1056,-0.0166 -0.2067,-0.0461 -0.3125,-0.0625 -0.4148,-0.0644 -0.8326,-0.12546 -1.25,-0.1875 -0.7928,-0.11773 -1.6041,-0.23467 -2.4062,-0.34375 -0.3812,-0.0518 -0.773,-0.10639 -1.1563,-0.15625 -0.8543,-0.1111 -1.7289,-0.21115 -2.5937,-0.3125 -0.3406,-0.0399 -0.6891,-0.0866 -1.0313,-0.125 -0.9239,-0.1036 -1.8452,-0.18873 -2.7813,-0.28125 -0.2892,-0.0286 -0.5845,-0.0662 -0.875,-0.0937 -0.2266,-0.0215 -0.4601,-0.0417 -0.6874,-0.0625 -2.0582,-0.18871 -4.1332,-0.36455 -6.25,-0.5 -0.2071,-0.0132 -0.4174,-0.0185 -0.625,-0.0312 -2.4512,-0.15037 -4.9381,-0.26513 -7.4688,-0.34375 -0.1031,-0.003 -0.2092,0.003 -0.3125,0 -1.2698,-0.0379 -2.5538,-0.074 -3.8437,-0.0937 -0.052,-7.9e-4 -0.1046,7.6e-4 -0.1563,0 -1.3426,-0.0199 -2.6966,-0.0314 -4.0619,-0.0314 z"
       id="path3248" />
  </g>
</svg>
