<?xml version="1.0" encoding="UTF-8" standalone="no"?>
<!-- Created with Inkscape (http://www.inkscape.org/) -->

<svg
   xmlns:dc="http://purl.org/dc/elements/1.1/"
   xmlns:cc="http://creativecommons.org/ns#"
   xmlns:rdf="http://www.w3.org/1999/02/22-rdf-syntax-ns#"
   xmlns:svg="http://www.w3.org/2000/svg"
   xmlns="http://www.w3.org/2000/svg"
   xmlns:sodipodi="http://sodipodi.sourceforge.net/DTD/sodipodi-0.dtd"
   xmlns:inkscape="http://www.inkscape.org/namespaces/inkscape"
   width="1024"
   height="1024"
   id="svg2993"
   version="1.1"
   inkscape:version="0.48.4 r9939"
   sodipodi:docname="æ-min.svg">
  <defs
     id="defs2995" />
  <sodipodi:namedview
     id="base"
     pagecolor="#ffffff"
     bordercolor="#666666"
     borderopacity="1.0"
     inkscape:pageopacity="0.0"
     inkscape:pageshadow="2"
     inkscape:zoom="0.5"
     inkscape:cx="835.76642"
     inkscape:cy="289.65931"
     inkscape:document-units="px"
     inkscape:current-layer="layer1"
     showgrid="true"
     inkscape:snap-bbox="true"
     inkscape:bbox-paths="true"
     inkscape:snap-bbox-edge-midpoints="false"
     inkscape:bbox-nodes="true"
     inkscape:snap-bbox-midpoints="false"
     inkscape:window-width="1920"
     inkscape:window-height="1027"
     inkscape:window-x="-8"
     inkscape:window-y="-8"
     inkscape:window-maximized="1"
     showguides="true"
     inkscape:guide-bbox="true"
     guidecolor="#0a00b3"
     guideopacity="0.49803922">
    <inkscape:grid
       type="xygrid"
       id="grid3042"
       empspacing="2"
       visible="true"
       enabled="true"
       snapvisiblegridlinesonly="true"
       spacingx="8px"
       spacingy="8px"
       color="#808080"
       opacity="0.1254902"
       empcolor="#393939"
       empopacity="0.2" />
    <sodipodi:guide
       orientation="0,1"
       position="704,1024"
       id="guide3044" />
    <sodipodi:guide
       orientation="1,0"
       position="0,768"
       id="guide3046" />
    <sodipodi:guide
       orientation="1,0"
       position="384,704"
       id="guide3048" />
    <sodipodi:guide
       orientation="1,0"
       position="320,832"
       id="guide3050" />
    <sodipodi:guide
       orientation="0,1"
       position="384,192"
       id="guide3052" />
    <sodipodi:guide
       orientation="0,1"
       position="640,832"
       id="guide3054" />
    <sodipodi:guide
       orientation="0,1"
       position="640,0"
       id="guide3056" />
    <sodipodi:guide
       orientation="1,0"
       position="1024,640"
       id="guide3058" />
    <sodipodi:guide
       orientation="1,0"
       position="-16,688"
       id="guide3060" />
    <sodipodi:guide
       orientation="0,1"
       position="240,848"
       id="guide3064" />
    <sodipodi:guide
       orientation="1,0"
       position="336,672"
       id="guide3066" />
    <sodipodi:guide
       orientation="0,1"
       position="64,176"
       id="guide3068" />
    <sodipodi:guide
       orientation="0,1"
       position="640,640"
       id="guide3079" />
  </sodipodi:namedview>
  <metadata
     id="metadata2998">
    <rdf:RDF>
      <cc:Work
         rdf:about="">
        <dc:format>image/svg+xml</dc:format>
        <dc:type
           rdf:resource="http://purl.org/dc/dcmitype/StillImage" />
        <dc:title />
      </cc:Work>
    </rdf:RDF>
  </metadata>
  <g
     inkscape:label="Layer 1"
     inkscape:groupmode="layer"
     id="layer1"
     transform="translate(0,-28.362183)">
    <path
       style="fill:#2e3436;fill-opacity:1;stroke:none"
       d="M 96 376 C 41.758964 376 15.610087 393.5432 3.125 437.40625 L 66.96875 474.28125 C 70.553223 452.84202 78.470178 448 96 448 C 126 448 127.88281 462.04883 128 549.5 C 128.008 555.33008 128 561.5 128 568 L 96 568 C 56 568 -8 584 -8 704 C -8 800 32 840 96 840 C 122.05453 840 142.80232 833.36933 158.25 819.03125 C 172.45101 832.79456 193.30902 840 224 840 C 278.24104 840 304.38991 822.4568 316.875 778.59375 L 253.03125 741.71875 C 249.44678 763.15798 241.52982 768 224 768 C 194 768 192.11719 753.95117 192 666.5 C 191.992 660.66992 192 654.5 192 648 L 224 648 C 264 648 328 632 328 512 C 328 416 288 376 224 376 C 197.94547 376 177.19768 382.63067 161.75 396.96875 C 147.54899 383.20544 126.69098 376 96 376 z M 224 448 C 240 448 256 464 256 512 C 256 568 248 576 224 576 C 208 576 192 576 192 552 L 192 536 L 192 512 C 192 464 208 448 224 448 z M 96 640 C 112 640 128 640 128 664 L 128 680 L 128 704 C 128 752 112 768 96 768 C 80 768 64 752 64 704 C 64 648 72 640 96 640 z "
       transform="translate(0,28.362183)"
       id="rect3032" />
  </g>
</svg>
