<?xml version="1.0" encoding="UTF-8" standalone="no"?>
<!-- Created with Inkscape (http://www.inkscape.org/) -->

<svg
   xmlns:dc="http://purl.org/dc/elements/1.1/"
   xmlns:cc="http://creativecommons.org/ns#"
   xmlns:rdf="http://www.w3.org/1999/02/22-rdf-syntax-ns#"
   xmlns:svg="http://www.w3.org/2000/svg"
   xmlns="http://www.w3.org/2000/svg"
   xmlns:sodipodi="http://sodipodi.sourceforge.net/DTD/sodipodi-0.dtd"
   xmlns:inkscape="http://www.inkscape.org/namespaces/inkscape"
   width="1024"
   height="1024"
   id="svg2993"
   version="1.1"
   inkscape:version="0.48.4 r9939"
   sodipodi:docname="Õ.svg">
  <defs
     id="defs2995" />
  <sodipodi:namedview
     id="base"
     pagecolor="#ffffff"
     bordercolor="#666666"
     borderopacity="1.0"
     inkscape:pageopacity="0.0"
     inkscape:pageshadow="2"
     inkscape:zoom="0.35"
     inkscape:cx="175.5204"
     inkscape:cy="290.50431"
     inkscape:document-units="px"
     inkscape:current-layer="layer1"
     showgrid="true"
     inkscape:snap-bbox="true"
     inkscape:bbox-paths="true"
     inkscape:snap-bbox-edge-midpoints="false"
     inkscape:bbox-nodes="true"
     inkscape:snap-bbox-midpoints="false"
     inkscape:window-width="1920"
     inkscape:window-height="1027"
     inkscape:window-x="-8"
     inkscape:window-y="-8"
     inkscape:window-maximized="1"
     showguides="true"
     inkscape:guide-bbox="true"
     guidecolor="#0a00b3"
     guideopacity="0.49803922">
    <inkscape:grid
       type="xygrid"
       id="grid3042"
       empspacing="2"
       visible="true"
       enabled="true"
       snapvisiblegridlinesonly="true"
       spacingx="8px"
       spacingy="8px"
       color="#808080"
       opacity="0.1254902"
       empcolor="#393939"
       empopacity="0.2" />
    <sodipodi:guide
       orientation="1,0"
       position="0,768"
       id="guide3046" />
    <sodipodi:guide
       orientation="1,0"
       position="384,704"
       id="guide3048" />
    <sodipodi:guide
       orientation="1,0"
       position="320,832"
       id="guide3050" />
    <sodipodi:guide
       orientation="0,1"
       position="384,192"
       id="guide3052" />
    <sodipodi:guide
       orientation="0,1"
       position="640,832"
       id="guide3054" />
    <sodipodi:guide
       orientation="0,1"
       position="640,0"
       id="guide3056" />
    <sodipodi:guide
       orientation="1,0"
       position="1024,640"
       id="guide3058" />
    <sodipodi:guide
       orientation="1,0"
       position="-16,688"
       id="guide3060" />
    <sodipodi:guide
       orientation="0,1"
       position="240,848"
       id="guide3064" />
    <sodipodi:guide
       orientation="1,0"
       position="336,672"
       id="guide3066" />
    <sodipodi:guide
       orientation="0,1"
       position="176,176"
       id="guide3068" />
  </sodipodi:namedview>
  <metadata
     id="metadata2998">
    <rdf:RDF>
      <cc:Work
         rdf:about="">
        <dc:format>image/svg+xml</dc:format>
        <dc:type
           rdf:resource="http://purl.org/dc/dcmitype/StillImage" />
        <dc:title />
      </cc:Work>
    </rdf:RDF>
  </metadata>
  <g
     inkscape:label="Layer 1"
     inkscape:groupmode="layer"
     id="layer1"
     transform="translate(0,-28.362183)">
    <path
       style="fill:#2e3436;fill-opacity:1;stroke:none;display:inline"
       d="M 103.59375 -5.28125 C 98.105094 -5.166479 92.476999 -4.5295779 86.71875 -3.34375 C 78.18801 -1.586971 69.394191 1.397539 60.40625 5.78125 C 6.074367 32.280681 -10.273416 87.8424 5.8125 130.28125 L 70.875 98.5625 C 67.400262 85.88472 70.540485 72.02544 88.46875 63.28125 C 110.03981 52.760338 124.23608 63.65054 131.25 78.03125 C 152.29183 121.17336 202.07093 150.2745 259.59375 122.21875 C 313.92563 95.71932 330.27341 40.157614 314.1875 -2.28125 L 249.125 29.4375 C 252.59974 42.115287 249.45952 55.97454 231.53125 64.71875 C 209.9602 75.23964 195.76392 64.349452 188.75 49.96875 C 173.21522 18.117737 142.01434 -6.0846471 103.59375 -5.28125 z M 160 184 C 0 184 -8 320 -8 512 C -8 704 0 840 160 840 C 320 840 328 704 328 512 C 328 320 320 184 160 184 z M 160 256 C 256 256 256 352 256 512 C 256 672 256 768 160 768 C 64 768 64 672 64 512 C 64 352 64 256 160 256 z "
       transform="translate(0,28.362183)"
       id="path3554" />
  </g>
</svg>
