<?xml version="1.0" encoding="UTF-8" standalone="no"?>
<!-- Created with Inkscape (http://www.inkscape.org/) -->

<svg
   xmlns:dc="http://purl.org/dc/elements/1.1/"
   xmlns:cc="http://creativecommons.org/ns#"
   xmlns:rdf="http://www.w3.org/1999/02/22-rdf-syntax-ns#"
   xmlns:svg="http://www.w3.org/2000/svg"
   xmlns="http://www.w3.org/2000/svg"
   xmlns:sodipodi="http://sodipodi.sourceforge.net/DTD/sodipodi-0.dtd"
   xmlns:inkscape="http://www.inkscape.org/namespaces/inkscape"
   width="1024"
   height="1024"
   id="svg2993"
   version="1.1"
   inkscape:version="0.48.4 r9939"
   sodipodi:docname="PORMIL.svg">
  <defs
     id="defs2995" />
  <sodipodi:namedview
     id="base"
     pagecolor="#ffffff"
     bordercolor="#666666"
     borderopacity="1.0"
     inkscape:pageopacity="0.0"
     inkscape:pageshadow="2"
     inkscape:zoom="0.512"
     inkscape:cx="231.89371"
     inkscape:cy="435.78047"
     inkscape:document-units="px"
     inkscape:current-layer="layer1"
     showgrid="true"
     inkscape:snap-bbox="true"
     inkscape:bbox-paths="true"
     inkscape:snap-bbox-edge-midpoints="false"
     inkscape:bbox-nodes="true"
     inkscape:snap-bbox-midpoints="false"
     inkscape:window-width="1920"
     inkscape:window-height="1027"
     inkscape:window-x="-8"
     inkscape:window-y="-8"
     inkscape:window-maximized="1"
     showguides="true"
     inkscape:guide-bbox="true"
     guidecolor="#0a00b3"
     guideopacity="0.49803922">
    <inkscape:grid
       type="xygrid"
       id="grid3042"
       empspacing="2"
       visible="true"
       enabled="true"
       snapvisiblegridlinesonly="true"
       spacingx="8px"
       spacingy="8px"
       color="#808080"
       opacity="0.1254902"
       empcolor="#393939"
       empopacity="0.2" />
    <sodipodi:guide
       orientation="0,1"
       position="704,1024"
       id="guide3044" />
    <sodipodi:guide
       orientation="1,0"
       position="0,768"
       id="guide3046" />
    <sodipodi:guide
       orientation="1,0"
       position="384,704"
       id="guide3048" />
    <sodipodi:guide
       orientation="1,0"
       position="320,832"
       id="guide3050" />
    <sodipodi:guide
       orientation="0,1"
       position="384,192"
       id="guide3052" />
    <sodipodi:guide
       orientation="0,1"
       position="640,832"
       id="guide3054" />
    <sodipodi:guide
       orientation="0,1"
       position="640,0"
       id="guide3056" />
    <sodipodi:guide
       orientation="1,0"
       position="1024,640"
       id="guide3058" />
    <sodipodi:guide
       orientation="1,0"
       position="-16,688"
       id="guide3060" />
    <sodipodi:guide
       orientation="0,1"
       position="240,848"
       id="guide3064" />
    <sodipodi:guide
       orientation="1,0"
       position="336,672"
       id="guide3066" />
    <sodipodi:guide
       orientation="0,1"
       position="176,176"
       id="guide3068" />
  </sodipodi:namedview>
  <metadata
     id="metadata2998">
    <rdf:RDF>
      <cc:Work
         rdf:about="">
        <dc:format>image/svg+xml</dc:format>
        <dc:type
           rdf:resource="http://purl.org/dc/dcmitype/StillImage" />
        <dc:title />
      </cc:Work>
    </rdf:RDF>
  </metadata>
  <g
     inkscape:label="Layer 1"
     inkscape:groupmode="layer"
     id="layer1"
     transform="translate(0,-28.362183)">
    <path
       style="fill:#204a87;fill-opacity:1;stroke:none"
       d="M 80 176 C 26.980664 176 -16 218.98066 -16 272 C -16 325.01934 26.980664 368 80 368 C 133.01934 368 176 325.01934 176 272 C 176 218.98066 133.01934 176 80 176 z M 280.5625 176 L -39.4375 730.25 L 16 762.25 L 336 208 L 280.5625 176 z M 80 224 C 106.50967 224 128 245.49033 128 272 C 128 298.50967 106.50967 320 80 320 C 53.490332 320 32 298.50967 32 272 C 32 245.49033 53.490332 224 80 224 z M 160 656 C 106.98066 656 64 698.98066 64 752 C 64 805.01934 106.98066 848 160 848 C 188.67133 848 214.40939 835.42854 232 815.5 C 249.59061 835.42854 275.32867 848 304 848 C 357.01934 848 400 805.01934 400 752 C 400 698.98066 357.01934 656 304 656 C 275.32867 656 249.59061 668.57146 232 688.5 C 214.40939 668.57146 188.67133 656 160 656 z M 160 704 C 186.50967 704 208 725.49033 208 752 C 208 778.50967 186.50967 800 160 800 C 133.49033 800 112 778.50967 112 752 C 112 725.49033 133.49033 704 160 704 z M 304 704 C 330.50967 704 352 725.49033 352 752 C 352 778.50967 330.50967 800 304 800 C 277.49033 800 256 778.50967 256 752 C 256 725.49033 277.49033 704 304 704 z "
       transform="translate(0,28.362183)"
       id="rect3071" />
  </g>
</svg>
