<?xml version="1.0" encoding="UTF-8" standalone="no"?>
<!-- Created with Inkscape (http://www.inkscape.org/) -->

<svg
   xmlns:dc="http://purl.org/dc/elements/1.1/"
   xmlns:cc="http://creativecommons.org/ns#"
   xmlns:rdf="http://www.w3.org/1999/02/22-rdf-syntax-ns#"
   xmlns:svg="http://www.w3.org/2000/svg"
   xmlns="http://www.w3.org/2000/svg"
   xmlns:sodipodi="http://sodipodi.sourceforge.net/DTD/sodipodi-0.dtd"
   xmlns:inkscape="http://www.inkscape.org/namespaces/inkscape"
   width="1024"
   height="1024"
   id="svg2993"
   version="1.1"
   inkscape:version="0.48.4 r9939"
   sodipodi:docname="&amp;.svg">
  <defs
     id="defs2995" />
  <sodipodi:namedview
     id="base"
     pagecolor="#ffffff"
     bordercolor="#666666"
     borderopacity="1.0"
     inkscape:pageopacity="0.0"
     inkscape:pageshadow="2"
     inkscape:zoom="0.18101934"
     inkscape:cx="1702.9069"
     inkscape:cy="-350.88095"
     inkscape:document-units="px"
     inkscape:current-layer="layer1"
     showgrid="false"
     inkscape:snap-bbox="true"
     inkscape:bbox-paths="true"
     inkscape:snap-bbox-edge-midpoints="false"
     inkscape:bbox-nodes="true"
     inkscape:snap-bbox-midpoints="false"
     inkscape:window-width="1920"
     inkscape:window-height="1027"
     inkscape:window-x="-8"
     inkscape:window-y="-8"
     inkscape:window-maximized="1"
     showguides="true"
     inkscape:guide-bbox="true"
     guidecolor="#0a00b3"
     guideopacity="0.49803922">
    <inkscape:grid
       type="xygrid"
       id="grid3042"
       empspacing="2"
       visible="true"
       enabled="true"
       snapvisiblegridlinesonly="true"
       spacingx="8px"
       spacingy="8px"
       color="#808080"
       opacity="0.1254902"
       empcolor="#393939"
       empopacity="0.2" />
    <sodipodi:guide
       orientation="0,1"
       position="704,1024"
       id="guide3044" />
    <sodipodi:guide
       orientation="1,0"
       position="0,768"
       id="guide3046" />
    <sodipodi:guide
       orientation="1,0"
       position="384,704"
       id="guide3048" />
    <sodipodi:guide
       orientation="1,0"
       position="320,832"
       id="guide3050" />
    <sodipodi:guide
       orientation="0,1"
       position="384,192"
       id="guide3052" />
    <sodipodi:guide
       orientation="0,1"
       position="640,832"
       id="guide3054" />
    <sodipodi:guide
       orientation="0,1"
       position="640,0"
       id="guide3056" />
    <sodipodi:guide
       orientation="1,0"
       position="1024,640"
       id="guide3058" />
    <sodipodi:guide
       orientation="1,0"
       position="-16,688"
       id="guide3060" />
    <sodipodi:guide
       orientation="0,1"
       position="240,848"
       id="guide3064" />
    <sodipodi:guide
       orientation="1,0"
       position="336,672"
       id="guide3066" />
    <sodipodi:guide
       orientation="0,1"
       position="176,176"
       id="guide3068" />
  </sodipodi:namedview>
  <metadata
     id="metadata2998">
    <rdf:RDF>
      <cc:Work
         rdf:about="">
        <dc:format>image/svg+xml</dc:format>
        <dc:type
           rdf:resource="http://purl.org/dc/dcmitype/StillImage" />
        <dc:title />
      </cc:Work>
    </rdf:RDF>
  </metadata>
  <g
     inkscape:label="Layer 1"
     inkscape:groupmode="layer"
     id="layer1"
     transform="translate(0,-28.362183)">
    <path
       style="fill:#2e3436;fill-opacity:1;stroke:none"
       d="M 160 184 C 96 184 64 250.98066 64 304 C 64 376.83834 79.570904 435.41726 101.8125 485.65625 C 51.955375 540.12647 0 589.41523 0 656 C 0 768 48 840 144 840 C 192.86353 840 228.83441 816.9619 255.03125 780.28125 C 255.67755 786.72512 256 793.29391 256 800 L 256 832 L 320 832 L 320 800 C 320 758.57908 311.04749 720.89332 297.03125 685.3125 C 314.31697 621.7098 320 547.31487 320 480 L 256 480 C 256 505.11711 255.02677 547.77404 249.34375 592.65625 C 228.05917 557.56492 204.97487 523.2386 184.71875 487.71875 C 223.197 440.80137 256 383.34474 256 304 C 256 250.98066 224 184 160 184 z M 160 264 C 176 264 192 286.32689 192 304 C 192 350.50913 175.76487 388.90928 152.75 423.125 C 137.71495 386.24152 128 347.14808 128 304 C 128 288 144 264 160 264 z M 132.625 544.84375 C 164.89016 599.15838 201.64973 644.62479 226.59375 692.125 C 209.99626 735.79984 184.15186 768 144 768 C 112 768 64 736 64 656 C 64 617.27512 95.346049 583.65674 132.625 544.84375 z "
       transform="translate(0,28.362183)"
       id="path2995" />
  </g>
</svg>
